<svg width="301" height="100" viewBox="0 0 301 100" fill="none" xmlns="http://www.w3.org/2000/svg">
<rect width="301" height="100" rx="5" fill="#F4F4F4"/>
<path fill-rule="evenodd" clip-rule="evenodd" d="M69.8524 69.9777C69.8524 69.9777 69.7486 69.8528 69.5708 69.6382C69.0822 69.0482 68.036 67.7779 67.0639 66.5517C66.9761 66.4409 66.8885 66.33 66.8011 66.2189C72.8578 64.5019 75.1691 60.6972 75.1691 60.6972C73.5106 61.7935 71.9228 62.6056 70.4677 63.1953C70.2637 63.278 70.0586 63.3577 69.8524 63.4345C67.5411 64.4093 65.3217 65.0586 63.1489 65.43C58.7103 66.2652 54.6419 66.0333 51.1746 65.3837C48.5391 64.873 46.2737 64.1308 44.3784 63.3885C43.3149 62.9708 42.1592 62.4604 41.003 61.8108C40.9381 61.7672 40.873 61.7338 40.8079 61.7011L40.795 61.6946C40.7259 61.6599 40.6563 61.625 40.5871 61.5786C40.4949 61.5323 40.4484 61.486 40.4023 61.4397C39.7781 61.0917 39.362 60.8219 39.193 60.7088C39.1367 60.6711 39.1078 60.6508 39.1078 60.6508C39.1078 60.6508 39.2465 60.8828 39.5462 61.2584C40.4456 62.3851 42.7949 64.8037 47.1985 66.126C45.8117 67.8896 44.1009 69.9773 44.1009 69.9773C33.8832 69.6524 30 62.9245 30 62.9245C30 47.9833 36.6575 35.8725 36.6575 35.8725C41.6506 32.1139 46.4616 31.2527 48.5551 31.0569C49.2529 30.9917 49.6487 31.0004 49.6487 31.0004L50.1111 31.5574C41.7894 33.9696 37.952 37.6358 37.952 37.6358C37.952 37.6358 38.8459 37.1465 40.3669 36.4353C40.4683 36.3879 40.5725 36.3395 40.6794 36.2902C44.3897 34.6544 47.5279 33.9063 49.5478 33.5758C50.2211 33.4656 50.7701 33.4018 51.1746 33.367C51.2078 33.3614 51.2402 33.3558 51.2722 33.3503L51.2743 33.35C51.5089 33.3097 51.7171 33.274 51.9606 33.274C55.0588 32.8689 58.1942 32.8378 61.2997 33.1814C65.6914 33.6918 70.4073 34.991 75.2154 37.6358C75.2154 37.6358 72.0054 34.5772 65.1281 32.2067C64.6559 32.0441 64.181 31.8894 63.7036 31.7429L64.3508 31.0007C64.3508 31.0007 64.3755 31.0002 64.4235 31.0004C65.0958 31.0032 70.3299 31.1523 76.0989 34.9922C76.5218 35.2736 76.9364 35.5672 77.3422 35.8728C77.3422 35.8728 83.1935 46.5169 83.9252 60.1585C83.9737 61.0679 84 61.9907 84 62.9245C84 62.9245 80.0698 69.6527 69.8524 69.9777ZM48.3542 48.3081C45.8838 48.3081 43.9011 50.3472 43.6629 52.9342C43.6468 53.1085 43.6388 53.2834 43.6389 53.4584C43.6389 56.2891 45.7652 58.609 48.3542 58.609C50.9897 58.609 53.0699 56.2891 53.0699 53.4584C53.1164 50.6281 50.9894 48.3081 48.3542 48.3081ZM65.2294 48.3081C62.7586 48.3081 60.7756 50.3472 60.5374 52.9342C60.5214 53.1085 60.5134 53.2834 60.5134 53.4584C60.5134 56.2891 62.6403 58.609 65.2294 58.609C67.8645 58.609 69.9446 56.2891 69.9446 53.4584C69.9446 50.6281 67.8645 48.3081 65.2294 48.3081Z" fill="#7289DA"/>
<path d="M97.675 60.175V58.1C99.025 58.1 100.008 57.825 100.625 57.275C101.258 56.725 101.575 55.7667 101.575 54.4V43H103.75V54.4C103.75 55.5333 103.567 56.5417 103.2 57.425C102.85 58.2917 102.233 58.9667 101.35 59.45C100.483 59.9333 99.2583 60.175 97.675 60.175Z" fill="#7289DA"/>
<path d="M118.082 53.05V54.55C118.082 56.3167 117.624 57.7083 116.707 58.725C115.807 59.7417 114.515 60.25 112.832 60.25C111.165 60.25 109.874 59.7417 108.957 58.725C108.04 57.7083 107.582 56.3167 107.582 54.55V53.05C107.582 51.3167 108.032 49.9417 108.932 48.925C109.849 47.8917 111.149 47.375 112.832 47.375C114.515 47.375 115.807 47.8917 116.707 48.925C117.624 49.9417 118.082 51.3167 118.082 53.05ZM115.957 53.05C115.957 51.8667 115.69 50.9417 115.157 50.275C114.624 49.5917 113.849 49.25 112.832 49.25C111.832 49.25 111.057 49.5917 110.507 50.275C109.974 50.9417 109.707 51.8667 109.707 53.05V54.55C109.707 55.7833 109.974 56.7333 110.507 57.4C111.057 58.0667 111.832 58.4 112.832 58.4C113.849 58.4 114.624 58.0667 115.157 57.4C115.69 56.7333 115.957 55.7833 115.957 54.55V53.05Z" fill="#7289DA"/>
<path d="M123.982 44.6H121.682V42.3H123.982V44.6ZM123.857 60H121.807V47.625H123.857V60Z" fill="#7289DA"/>
<path d="M134.227 49.3C133.76 49.3 133.21 49.4167 132.577 49.65C131.96 49.8833 131.21 50.3583 130.327 51.075V60H128.277V47.625H130.227V49.35C131.11 48.6 131.91 48.0833 132.627 47.8C133.36 47.5167 134.06 47.375 134.727 47.375C135.877 47.375 136.752 47.7417 137.352 48.475C137.969 49.1917 138.277 50.2167 138.277 51.55V60H136.227V51.85C136.227 50.15 135.56 49.3 134.227 49.3Z" fill="#7289DA"/>
<path d="M157.804 53.05V54.55C157.804 56.3167 157.345 57.7083 156.429 58.725C155.529 59.7417 154.237 60.25 152.554 60.25C150.887 60.25 149.595 59.7417 148.679 58.725C147.762 57.7083 147.304 56.3167 147.304 54.55V53.05C147.304 51.3167 147.754 49.9417 148.654 48.925C149.57 47.8917 150.87 47.375 152.554 47.375C154.237 47.375 155.529 47.8917 156.429 48.925C157.345 49.9417 157.804 51.3167 157.804 53.05ZM155.679 53.05C155.679 51.8667 155.412 50.9417 154.879 50.275C154.345 49.5917 153.57 49.25 152.554 49.25C151.554 49.25 150.779 49.5917 150.229 50.275C149.695 50.9417 149.429 51.8667 149.429 53.05V54.55C149.429 55.7833 149.695 56.7333 150.229 57.4C150.779 58.0667 151.554 58.4 152.554 58.4C153.57 58.4 154.345 58.0667 154.879 57.4C155.412 56.7333 155.679 55.7833 155.679 54.55V53.05Z" fill="#7289DA"/>
<path d="M169.154 60V58.25C168.287 59 167.512 59.525 166.829 59.825C166.146 60.1083 165.462 60.25 164.779 60.25C163.679 60.25 162.837 59.8917 162.254 59.175C161.671 58.4417 161.379 57.4167 161.379 56.1V47.625H163.429V55.8C163.429 56.6667 163.579 57.3083 163.879 57.725C164.196 58.125 164.662 58.325 165.279 58.325C165.746 58.325 166.271 58.2083 166.854 57.975C167.437 57.7417 168.162 57.275 169.029 56.575V47.625H171.079V60H169.154Z" fill="#7289DA"/>
<path d="M181.994 49.425C181.244 49.425 180.511 49.5583 179.794 49.825C179.094 50.0917 178.344 50.6 177.544 51.35V60H175.494V47.625H177.444V49.625C178.294 48.7917 179.069 48.2083 179.769 47.875C180.486 47.5417 181.227 47.375 181.994 47.375V49.425Z" fill="#7289DA"/>
<path d="M197.643 60V58.275C196.876 59.0083 196.176 59.525 195.543 59.825C194.926 60.1083 194.285 60.25 193.618 60.25C192.301 60.25 191.285 59.75 190.568 58.75C189.868 57.75 189.518 56.35 189.518 54.55V53.1C189.518 51.35 189.951 49.9583 190.818 48.925C191.701 47.8917 192.976 47.375 194.643 47.375C195.126 47.375 195.61 47.425 196.093 47.525C196.576 47.625 197.06 47.7667 197.543 47.95V41.5H199.593V60H197.643ZM191.643 54.55C191.643 55.85 191.843 56.8083 192.243 57.425C192.66 58.025 193.276 58.325 194.093 58.325C194.576 58.325 195.076 58.2083 195.593 57.975C196.11 57.725 196.76 57.2167 197.543 56.45V49.85C197.06 49.6333 196.593 49.4833 196.143 49.4C195.693 49.3 195.251 49.25 194.818 49.25C193.685 49.25 192.868 49.5917 192.368 50.275C191.885 50.9583 191.643 51.9 191.643 53.1V54.55Z" fill="#7289DA"/>
<path d="M206.185 44.6H203.885V42.3H206.185V44.6ZM206.06 60H204.01V47.625H206.06V60Z" fill="#7289DA"/>
<path d="M213.504 58.425C215.171 58.425 216.004 57.8583 216.004 56.725C216.004 56.2417 215.854 55.8583 215.554 55.575C215.254 55.2917 214.704 55.05 213.904 54.85L212.529 54.5C211.513 54.25 210.754 53.8167 210.254 53.2C209.754 52.5667 209.504 51.8167 209.504 50.95C209.504 50.3167 209.646 49.7333 209.929 49.2C210.213 48.65 210.663 48.2083 211.279 47.875C211.896 47.5417 212.696 47.375 213.679 47.375C214.313 47.375 214.954 47.45 215.604 47.6C216.271 47.7333 216.946 47.9667 217.629 48.3L216.979 50.025C215.763 49.475 214.663 49.2 213.679 49.2C212.229 49.2 211.504 49.7417 211.504 50.825C211.504 51.2417 211.638 51.6 211.904 51.9C212.171 52.2 212.671 52.4417 213.404 52.625L214.779 52.975C215.879 53.2417 216.688 53.675 217.204 54.275C217.721 54.875 217.979 55.65 217.979 56.6C217.979 57.2833 217.829 57.9083 217.529 58.475C217.246 59.025 216.779 59.4583 216.129 59.775C215.496 60.0917 214.638 60.25 213.554 60.25C212.838 60.25 212.121 60.175 211.404 60.025C210.704 59.875 209.979 59.6333 209.229 59.3L209.779 57.6C210.496 57.8833 211.146 58.0917 211.729 58.225C212.313 58.3583 212.904 58.425 213.504 58.425Z" fill="#7289DA"/>
<path d="M222.696 53.075V54.55C222.696 55.8167 222.929 56.775 223.396 57.425C223.863 58.0583 224.604 58.375 225.621 58.375C226.621 58.375 227.696 58.1167 228.846 57.6L229.471 59.325C228.104 59.9417 226.779 60.25 225.496 60.25C223.896 60.25 222.679 59.7417 221.846 58.725C221.013 57.7083 220.596 56.3167 220.596 54.55V53.075C220.596 51.3083 221.013 49.9167 221.846 48.9C222.679 47.8833 223.896 47.375 225.496 47.375C226.096 47.375 226.713 47.4583 227.346 47.625C227.996 47.775 228.646 47.9917 229.296 48.275L228.671 50.025C228.121 49.7917 227.588 49.6083 227.071 49.475C226.571 49.3417 226.088 49.275 225.621 49.275C224.604 49.275 223.863 49.6 223.396 50.25C222.929 50.8833 222.696 51.825 222.696 53.075Z" fill="#7289DA"/>
<path d="M242.228 53.05V54.55C242.228 56.3167 241.769 57.7083 240.853 58.725C239.953 59.7417 238.661 60.25 236.978 60.25C235.311 60.25 234.019 59.7417 233.103 58.725C232.186 57.7083 231.728 56.3167 231.728 54.55V53.05C231.728 51.3167 232.178 49.9417 233.078 48.925C233.994 47.8917 235.294 47.375 236.978 47.375C238.661 47.375 239.953 47.8917 240.853 48.925C241.769 49.9417 242.228 51.3167 242.228 53.05ZM240.103 53.05C240.103 51.8667 239.836 50.9417 239.303 50.275C238.769 49.5917 237.994 49.25 236.978 49.25C235.978 49.25 235.203 49.5917 234.653 50.275C234.119 50.9417 233.853 51.8667 233.853 53.05V54.55C233.853 55.7833 234.119 56.7333 234.653 57.4C235.203 58.0667 235.978 58.4 236.978 58.4C237.994 58.4 238.769 58.0667 239.303 57.4C239.836 56.7333 240.103 55.7833 240.103 54.55V53.05Z" fill="#7289DA"/>
<path d="M252.453 49.425C251.703 49.425 250.97 49.5583 250.253 49.825C249.553 50.0917 248.803 50.6 248.003 51.35V60H245.953V47.625H247.903V49.625C248.753 48.7917 249.528 48.2083 250.228 47.875C250.945 47.5417 251.686 47.375 252.453 47.375V49.425Z" fill="#7289DA"/>
<path d="M262.658 60V58.275C261.891 59.0083 261.191 59.525 260.558 59.825C259.941 60.1083 259.299 60.25 258.633 60.25C257.316 60.25 256.299 59.75 255.583 58.75C254.883 57.75 254.533 56.35 254.533 54.55V53.1C254.533 51.35 254.966 49.9583 255.833 48.925C256.716 47.8917 257.991 47.375 259.658 47.375C260.141 47.375 260.624 47.425 261.108 47.525C261.591 47.625 262.074 47.7667 262.558 47.95V41.5H264.608V60H262.658ZM256.658 54.55C256.658 55.85 256.858 56.8083 257.258 57.425C257.674 58.025 258.291 58.325 259.108 58.325C259.591 58.325 260.091 58.2083 260.608 57.975C261.124 57.725 261.774 57.2167 262.558 56.45V49.85C262.074 49.6333 261.608 49.4833 261.158 49.4C260.708 49.3 260.266 49.25 259.833 49.25C258.699 49.25 257.883 49.5917 257.383 50.275C256.899 50.9583 256.658 51.9 256.658 53.1V54.55Z" fill="#7289DA"/>
<path d="M271.149 55.45H269.499L269.299 49.25V43H271.349V49.25L271.149 55.45ZM271.474 60H269.174V57.725H271.474V60Z" fill="#7289DA"/>
</svg>
